<svg xmlns="http://www.w3.org/2000/svg" viewBox="0 0 512 512"><path d="M356 21Q330 21 303 27H301L296 62Q305 65 308 73Q312 85 297 98Q285 108 268 115Q253 121 240 122Q223 122 218.5 112.0Q214 102 221 90L194 72Q180 82 165 93L178 122Q193 118 203.0 128.5Q213 139 206 157Q201 172 186.5 186.5Q172 201 157 206Q139 213 129.0 203.0Q119 193 122 178L93 165Q82 180 72 194L90 221Q102 214 112.0 218.5Q122 223 122 240Q121 253 115 268Q108 285 98 297Q85 312 73 308Q65 305 62 296L27 301V303Q17 349 24 394Q30 433 47 462Q62 488 78 491Q64 473 57 443Q50 418 50 390Q50 365 55 352Q59 342 66.0 337.5Q73 333 80.5 334.0Q88 335 90 340Q106 369 116 380Q128 393 143 393Q105 351 135 290Q154 250 202.0 202.0Q250 154 290 135Q351 105 393 143Q393 128 380 116Q369 106 340 90Q335 88 334.0 80.5Q333 73 337.5 66.0Q342 59 352 55Q365 50 390 50Q418 50 443 57Q473 64 491 78Q489 66 470.0 52.5Q451 39 423 30Q391 21 356 21ZM282 32Q243 43 211 62L234 77Q244 69 255.0 64.5Q266 60 278 59ZM151 106Q141 115 128.0 127.5Q115 140 106 151L130 161Q136 152 144.0 144.0Q152 136 161 130ZM62 211Q43 243 32 282L59 278Q60 266 64.5 255.0Q69 244 77 234Z"/></svg>